<svg xmlns="http://www.w3.org/2000/svg" version="1.1" xmlns:xlink="http://www.w3.org/1999/xlink" preserveAspectRatio="none" x="0px" y="0px" viewBox="0 0 780 620" id="el_ZjSsgjDXK"><style>@-webkit-keyframes kf_el_cb8S145cyz_an_-m1TQC8KO{0%{-webkit-transform: translate(35.24136400222778px, 32.952083110809326px) scale(10, 10) translate(-35.24136400222778px, -32.952083110809326px);transform: translate(35.24136400222778px, 32.952083110809326px) scale(10, 10) translate(-35.24136400222778px, -32.952083110809326px);}100%{-webkit-transform: translate(35.24136400222778px, 32.952083110809326px) scale(10, 10) translate(-35.24136400222778px, -32.952083110809326px);transform: translate(35.24136400222778px, 32.952083110809326px) scale(10, 10) translate(-35.24136400222778px, -32.952083110809326px);}}@keyframes kf_el_cb8S145cyz_an_-m1TQC8KO{0%{-webkit-transform: translate(35.24136400222778px, 32.952083110809326px) scale(10, 10) translate(-35.24136400222778px, -32.952083110809326px);transform: translate(35.24136400222778px, 32.952083110809326px) scale(10, 10) translate(-35.24136400222778px, -32.952083110809326px);}100%{-webkit-transform: translate(35.24136400222778px, 32.952083110809326px) scale(10, 10) translate(-35.24136400222778px, -32.952083110809326px);transform: translate(35.24136400222778px, 32.952083110809326px) scale(10, 10) translate(-35.24136400222778px, -32.952083110809326px);}}@-webkit-keyframes kf_el_NWatxWCoED_an_beYJiYvO0{0%{-webkit-transform: translate(38.08018207550049px, 33.124587059020996px) translate(-38.08018207550049px, -33.124587059020996px) translate(370px, 275px);transform: translate(38.08018207550049px, 33.124587059020996px) translate(-38.08018207550049px, -33.124587059020996px) translate(370px, 275px);}100%{-webkit-transform: translate(38.08018207550049px, 33.124587059020996px) translate(-38.08018207550049px, -33.124587059020996px) translate(370px, 275px);transform: translate(38.08018207550049px, 33.124587059020996px) translate(-38.08018207550049px, -33.124587059020996px) translate(370px, 275px);}}@keyframes kf_el_NWatxWCoED_an_beYJiYvO0{0%{-webkit-transform: translate(38.08018207550049px, 33.124587059020996px) translate(-38.08018207550049px, -33.124587059020996px) translate(370px, 275px);transform: translate(38.08018207550049px, 33.124587059020996px) translate(-38.08018207550049px, -33.124587059020996px) translate(370px, 275px);}100%{-webkit-transform: translate(38.08018207550049px, 33.124587059020996px) translate(-38.08018207550049px, -33.124587059020996px) translate(370px, 275px);transform: translate(38.08018207550049px, 33.124587059020996px) translate(-38.08018207550049px, -33.124587059020996px) translate(370px, 275px);}}@-webkit-keyframes kf_el_NWatxWCoED_an_vesPCiEdr{0%{-webkit-transform: translate(38.08018207550049px, 33.124587059020996px) scale(9, 9) translate(-38.08018207550049px, -33.124587059020996px);transform: translate(38.08018207550049px, 33.124587059020996px) scale(9, 9) translate(-38.08018207550049px, -33.124587059020996px);}50%{-webkit-transform: translate(38.08018207550049px, 33.124587059020996px) scale(11, 11) translate(-38.08018207550049px, -33.124587059020996px);transform: translate(38.08018207550049px, 33.124587059020996px) scale(11, 11) translate(-38.08018207550049px, -33.124587059020996px);}100%{-webkit-transform: translate(38.08018207550049px, 33.124587059020996px) scale(9, 9) translate(-38.08018207550049px, -33.124587059020996px);transform: translate(38.08018207550049px, 33.124587059020996px) scale(9, 9) translate(-38.08018207550049px, -33.124587059020996px);}}@keyframes kf_el_NWatxWCoED_an_vesPCiEdr{0%{-webkit-transform: translate(38.08018207550049px, 33.124587059020996px) scale(9, 9) translate(-38.08018207550049px, -33.124587059020996px);transform: translate(38.08018207550049px, 33.124587059020996px) scale(9, 9) translate(-38.08018207550049px, -33.124587059020996px);}50%{-webkit-transform: translate(38.08018207550049px, 33.124587059020996px) scale(11, 11) translate(-38.08018207550049px, -33.124587059020996px);transform: translate(38.08018207550049px, 33.124587059020996px) scale(11, 11) translate(-38.08018207550049px, -33.124587059020996px);}100%{-webkit-transform: translate(38.08018207550049px, 33.124587059020996px) scale(9, 9) translate(-38.08018207550049px, -33.124587059020996px);transform: translate(38.08018207550049px, 33.124587059020996px) scale(9, 9) translate(-38.08018207550049px, -33.124587059020996px);}}@-webkit-keyframes kf_el_cb8S145cyz_an_aStcnufRL{0%{-webkit-transform: translate(35.24136400222778px, 32.952083110809326px) translate(-35.24136400222778px, -32.952083110809326px) translate(355px, 275px);transform: translate(35.24136400222778px, 32.952083110809326px) translate(-35.24136400222778px, -32.952083110809326px) translate(355px, 275px);}100%{-webkit-transform: translate(35.24136400222778px, 32.952083110809326px) translate(-35.24136400222778px, -32.952083110809326px) translate(355px, 275px);transform: translate(35.24136400222778px, 32.952083110809326px) translate(-35.24136400222778px, -32.952083110809326px) translate(355px, 275px);}}@keyframes kf_el_cb8S145cyz_an_aStcnufRL{0%{-webkit-transform: translate(35.24136400222778px, 32.952083110809326px) translate(-35.24136400222778px, -32.952083110809326px) translate(355px, 275px);transform: translate(35.24136400222778px, 32.952083110809326px) translate(-35.24136400222778px, -32.952083110809326px) translate(355px, 275px);}100%{-webkit-transform: translate(35.24136400222778px, 32.952083110809326px) translate(-35.24136400222778px, -32.952083110809326px) translate(355px, 275px);transform: translate(35.24136400222778px, 32.952083110809326px) translate(-35.24136400222778px, -32.952083110809326px) translate(355px, 275px);}}#el_ZjSsgjDXK *{-webkit-animation-duration: 1s;animation-duration: 1s;-webkit-animation-iteration-count: infinite;animation-iteration-count: infinite;-webkit-animation-timing-function: cubic-bezier(0, 0, 1, 1);animation-timing-function: cubic-bezier(0, 0, 1, 1);}#el_NTtc19UOMk{-webkit-transform: matrix(, 1,, 0,, 0,, 1,, 367.65,322.15);transform: matrix(, 1,, 0,, 0,, 1,, 367.65,322.15);}#el_cb8S145cyz{-webkit-transform: matrix(, 10.80584716796875,, 0,, 0,, 10.80584716796875,, -380.8,-356.05);transform: matrix(, 10.80584716796875,, 0,, 0,, 10.80584716796875,, -380.8,-356.05);}#el_KYwweg1L5c{-webkit-transform: matrix(, 0.8868865966796875,, 0,, 0,, 0.8868865966796875,, 388.25,315);transform: matrix(, 0.8868865966796875,, 0,, 0,, 0.8868865966796875,, 388.25,315);}#el_NWatxWCoED{-webkit-transform: matrix(, 10.802536010742188,, 0,, 0,, 10.802536010742188,, -411.45,-357.95);transform: matrix(, 10.802536010742188,, 0,, 0,, 10.802536010742188,, -411.45,-357.95);}#el_cb8S145cyz_an_aStcnufRL{-webkit-animation-fill-mode: backwards;animation-fill-mode: backwards;-webkit-transform: translate(35.24136400222778px, 32.952083110809326px) translate(-35.24136400222778px, -32.952083110809326px) translate(355px, 275px);transform: translate(35.24136400222778px, 32.952083110809326px) translate(-35.24136400222778px, -32.952083110809326px) translate(355px, 275px);-webkit-animation-name: kf_el_cb8S145cyz_an_aStcnufRL;animation-name: kf_el_cb8S145cyz_an_aStcnufRL;-webkit-animation-timing-function: cubic-bezier(0, 0, 1, 1);animation-timing-function: cubic-bezier(0, 0, 1, 1);}#el_cb8S145cyz_an_-m1TQC8KO{-webkit-transform: translate(35.24136400222778px, 32.952083110809326px) scale(10, 10) translate(-35.24136400222778px, -32.952083110809326px);transform: translate(35.24136400222778px, 32.952083110809326px) scale(10, 10) translate(-35.24136400222778px, -32.952083110809326px);-webkit-animation-fill-mode: backwards;animation-fill-mode: backwards;-webkit-animation-name: kf_el_cb8S145cyz_an_-m1TQC8KO;animation-name: kf_el_cb8S145cyz_an_-m1TQC8KO;-webkit-animation-timing-function: cubic-bezier(0, 0, 1, 1);animation-timing-function: cubic-bezier(0, 0, 1, 1);}#el_NWatxWCoED_an_vesPCiEdr{-webkit-animation-fill-mode: backwards;animation-fill-mode: backwards;-webkit-transform: translate(38.08018207550049px, 33.124587059020996px) scale(9, 9) translate(-38.08018207550049px, -33.124587059020996px);transform: translate(38.08018207550049px, 33.124587059020996px) scale(9, 9) translate(-38.08018207550049px, -33.124587059020996px);-webkit-animation-name: kf_el_NWatxWCoED_an_vesPCiEdr;animation-name: kf_el_NWatxWCoED_an_vesPCiEdr;-webkit-animation-timing-function: cubic-bezier(0, 0, 1, 1);animation-timing-function: cubic-bezier(0, 0, 1, 1);}#el_NWatxWCoED_an_beYJiYvO0{-webkit-animation-fill-mode: backwards;animation-fill-mode: backwards;-webkit-transform: translate(38.08018207550049px, 33.124587059020996px) translate(-38.08018207550049px, -33.124587059020996px) translate(370px, 275px);transform: translate(38.08018207550049px, 33.124587059020996px) translate(-38.08018207550049px, -33.124587059020996px) translate(370px, 275px);-webkit-animation-name: kf_el_NWatxWCoED_an_beYJiYvO0;animation-name: kf_el_NWatxWCoED_an_beYJiYvO0;-webkit-animation-timing-function: cubic-bezier(0, 0, 1, 1);animation-timing-function: cubic-bezier(0, 0, 1, 1);}</style>
<defs>
<g id="bulle_0_Layer0_0_MEMBER_0_FILL">
<path fill="#DF235A" stroke="none" d="&#10;M 62.4 18.65&#10;Q 62.35 18.5 60.75 16.05&#10;L 59.85 14.9&#10;Q 58.9 13.7 58.4 13.1 57.5 12 56.75 11.4 52.55 8.05 49.4 6.95 48.5 6.6 47.4 6.45&#10;L 43.25 5.8&#10;Q 41.5 5.55 40.95 5.6&#10;L 34.35 5.85&#10;Q 32.35 6 30.3 6.3 28.45 6.7 27.5 6.9 23.65 7.75 20.65 9.95 19.4 10.9 17.6 12.65 15.35 14.85 14.65 15.45 12.1 17.7 10.55 21.8&#10;L 10.05 23.2&#10;Q 7.75 30 9.4 35.7 10.6 40 13 44.4 14.55 47.4 16.15 48.6 16.35 48.8 16.2 49.2 14.45 51.45 13.95 51.95 12.8 53.1 11.35 54.15 9.2 55.75 8.6 56.1 6.95 57.05 5.5 57.3&#10;L 4.8 57.55&#10;Q 4.1 57.95 4.4 58.8 4.9 59.85 6.05 59.9 6.6 59.95 7.75 60.2 9.1 60.35 10.15 60.3 10.9 60.3 12.5 60 18.1 59.2 22.9 55.9 23.45 55.55 25 54.2&#10;L 27.8 56&#10;Q 29 56.75 30.9 57.35 32 57.7 34.15 58.3 36.15 59 37.2 59.15 41.6 59.7 45.7 58.45&#10;L 52.1 56.45&#10;Q 55.2 55.45 57.15 53.7 60.05 51.3 62 48.3 63.55 45.95 63.95 44.55 65.4 39.75 65.95 36.6 66.3 34.85 66.1 32.6 66.05 31.65 65.65 28.6 65.4 26.3 64.4 23.5 63.85 21.95 62.4 18.65&#10;M 45.45 9.05&#10;L 46.4 9.3&#10;Q 50.15 11 51.15 11.5 53.8 12.85 55.6 14.3 56.65 15.05 57.25 16.15 58.9 18.95 61.55 25.35 61.8 25.85 62 27.5&#10;L 62.7 32.05&#10;Q 62.95 33.6 62.65 35&#10;L 61.45 40.85&#10;Q 60.55 45.15 57.15 48.7 54.05 51.9 48.8 53.75 45.4 54.85 42.3 55.65 38.95 56.45 35.5 55.45 31.55 54.4 27.15 51.1 26.55 50.65 26.15 50.7 25.8 50.75 25.3 51.3 21.95 55.35 15.75 56.9 12.55 57.45 10.95 57.75&#10;L 10.5 57.8 10.75 57.6 11.2 57.35&#10;Q 13.85 55.7 15.1 54.8 17.3 53.25 18.7 51.75 19.85 50.6 20.15 49 20.3 47.95 19.6 47.5 17.45 46.25 16.15 43.95 13.4 39 12.35 35.1 11.75 32.8 12.2 28.9 12.4 27.45 12.9 25.5 13.45 23.15 14.7 21.45 15.85 19.55 16.5 18.65 19.1 15.35 19.85 14.65 20.65 13.9 24 11.95 29.65 8.65 38.3 8.5 42.7 8.4 45.45 9.05 Z"/>
</g>

<g id="coeur_0_Layer0_0_MEMBER_0_FILL">
<path fill="#DF235A" stroke="none" d="&#10;M 40.55 46.3&#10;Q 40.7 45.95 41 45.65 43 43.7 43.9 42.65 47.5 38.65 49.15 36.6 51.75 33.35 52.85 29.75 54.15 25.55 52.9 21.85 52.15 19.6 49.8 19.3 45.45 18.8 42.4 21.1 41.05 22.05 40.4 22.6 39.25 23.5 38.7 24.5 37.6 22.7 37.55 22.65 35.05 19.6 30.9 19.5 26.85 19.5 23.45 23.4 23.15 23.9 22.8 26.7 22.4 30.05 23.05 31.65 24.05 34.15 25.95 35.75 27.25 36.85 29.55 39.2 31.8 41.5 33.2 42.6 34.2 43.4 36.4 45.05 38.55 46.65 38.8 46.75 39.85 47.5 40.55 46.3 Z"/>
</g>
</defs>

<g id="el_NTtc19UOMk">
<g id="el_cb8S145cyz_an_aStcnufRL" data-animator-group="true" data-animator-type="0"><g id="el_cb8S145cyz_an_-m1TQC8KO" data-animator-group="true" data-animator-type="2"><g id="el_cb8S145cyz">
<use xlink:href="#bulle_0_Layer0_0_MEMBER_0_FILL" id="el_g663yAEs2K"/>
</g></g></g>
</g>

<g id="el_KYwweg1L5c">
<g id="el_NWatxWCoED_an_beYJiYvO0" data-animator-group="true" data-animator-type="0"><g id="el_NWatxWCoED_an_vesPCiEdr" data-animator-group="true" data-animator-type="2"><g id="el_NWatxWCoED">
<use xlink:href="#coeur_0_Layer0_0_MEMBER_0_FILL" id="el_XMAaUsIFyP"/>
</g></g></g>
</g>
</svg>